<?xml version="1.0" encoding="utf-8"?>
<!-- Generator: Adobe Illustrator 19.2.0, SVG Export Plug-In . SVG Version: 6.00 Build 0)  -->
<svg version="1.1" id="Layer_3" xmlns="http://www.w3.org/2000/svg" xmlns:xlink="http://www.w3.org/1999/xlink" x="0px" y="0px"
	 viewBox="0 0 2350.5 2053.9" style="enable-background:new 0 0 2350.5 2053.9;" xml:space="preserve">
<style type="text/css">
	.st0{fill:#FFFFFF;}
	.st1{fill:#1F3D72;}
	.st2{fill:#739E6D;}
	.st3{fill:#275038;}
	.st4{fill:#9E373A;}
</style>
<title>logo</title>
<path class="st0" d="M75.2,1959.4c-43.7,0-75.2-29-75.2-72.1c0-43.9,32.5-71.9,74.2-71.9c21.5,0,41.4,7.2,52.8,18.2l-20.9,23.8
	c-6.4-7.3-17.4-12.8-30.7-12.8c-23.2,0-40.2,18.2-40.2,42.7c0,25.1,14.9,43.1,41.8,43.1c7.7,0,14.9-1.2,20.7-3.7v-24.9H71.5v-26.7
	H128v72.5C114.6,1954.6,96.2,1959.4,75.2,1959.4z"/>
<path class="st0" d="M233.2,1955.9l-10.8-11.1c-7.3,7.7-17.6,13.4-33.3,13.4c-20.8,0-40.9-10.8-40.9-34c0-16.1,11.3-26.1,23.8-31.6
	c-7.1-6.9-11.8-15-11.8-24.8c0-20.6,18.7-29,35.6-29c17.4,0,34.8,8.9,34.8,29c0,14.5-10.3,23.5-22.9,29.8l14.3,14.7l11.4-17.6h29.3
	l-24.6,33l28.3,28.2L233.2,1955.9L233.2,1955.9L233.2,1955.9z M186.6,1907.8c-6.4,2.6-12.1,6.8-12.1,15.3c0,9,7.9,14.3,15.5,14.3
	c6.7,0.1,13-3.2,16.8-8.7L186.6,1907.8z M196.1,1858.2c-6.3,0-11,4.5-11,10.5c0,5.3,3.1,10.3,8.5,14.8c7.3-2.9,13.2-7.9,13.2-14.8
	C206.9,1862.8,202.7,1858.2,196.1,1858.2L196.1,1858.2L196.1,1858.2z"/>
<path class="st0" d="M367.8,1955.9l-55.1-89.5h-0.6l0.8,89.5h-32.1v-136.8h37.7l54.9,89.3h0.6l-0.8-89.3h32.1v136.8L367.8,1955.9
	L367.8,1955.9z"/>
<path class="st0" d="M492.3,1955.9h-11v-136.8h11V1955.9L492.3,1955.9z"/>
<path class="st0" d="M538.5,1865.9c0.4,5,0.8,13.1,0.8,18h0.4c5.2-12.4,18.8-20.3,32.3-20.3c23.6,0,33.6,16.2,33.6,37.5v54.9h-10.4
	v-51c0-17.8-5.6-32.5-25.5-32.5c-15.7,0-29.8,12.6-29.8,37.7v45.8h-10.6v-69.4c0-5-0.2-14.7-0.8-20.7L538.5,1865.9L538.5,1865.9
	L538.5,1865.9z"/>
<path class="st0" d="M679.6,1874.8h-25.7v57c0,13,5.8,16.6,14.3,16.6c3.8-0.1,7.6-0.9,11-2.5l0.6,9.1c-4.6,1.7-9.4,2.5-14.3,2.5
	c-11,0-22-5.6-22-23.2v-59.5h-18.9v-8.9h18.8v-25.7h10.6v25.7h25.7L679.6,1874.8L679.6,1874.8z"/>
<path class="st0" d="M694.5,1910.7c0-27.3,19.5-47.2,44.7-47.2c28.2,0,42.5,20.5,42.5,44.1v5.4h-76.4c0.4,19.1,13.9,36.3,35.2,36.3
	c13.5,0,22.6-5.4,30.9-15.3l7,5.6c-10.1,13-23.2,18.8-38.3,18.8C713.8,1958.4,694.5,1938.2,694.5,1910.7z M771.2,1904.7
	c-0.8-18.9-12.6-32.5-32.3-32.5c-20.3,0-32.7,17.6-33.4,32.5H771.2z"/>
<path class="st0" d="M810.3,1865.9h10.1c0.4,5,0.8,13.1,0.8,18h0.4c4.6-12.3,16.4-20.5,29.6-20.3c2.4-0.1,4.8,0.1,7.2,0.8l-1.2,9.7
	c-2.4-0.5-4.9-0.8-7.3-0.8c-16.4,0-28,13.7-28,36.5v46.2H811v-69.4C811,1881.5,810.8,1871.9,810.3,1865.9z"/>
<path class="st0" d="M887.4,1865.9c0.4,5,0.8,13.1,0.8,18h0.4c5.2-12.4,18.8-20.3,32.3-20.3c23.6,0,33.6,16.2,33.6,37.5v54.9H944
	v-51c0-17.8-5.6-32.5-25.5-32.5c-15.7,0-29.8,12.6-29.8,37.7v45.8h-10.6v-69.4c0-5-0.2-14.7-0.8-20.7L887.4,1865.9L887.4,1865.9
	L887.4,1865.9z"/>
<path class="st0" d="M982.9,1931.6c0-25.9,27.8-30.2,54.7-30.2h9.1v-4.1c0-17-9.3-25.1-25.5-25.1c-10,0-19.6,3.8-26.9,10.6l-5.8-7
	c7.5-7.3,19.9-12.4,33.6-12.4c19.9,0,34.6,10.6,34.6,32.7v39.4c0,6.8,0.5,13.6,1.6,20.3h-9.5c-0.9-5.5-1.4-11.1-1.6-16.6h-0.4
	c-7.3,13.1-18.6,19.1-33,19.1C999.9,1958.4,982.9,1950.9,982.9,1931.6z M1046.6,1917.1v-7.3h-6.8c-20.9,0-46.2,2.5-46.2,21.3
	c0,14.1,12,18.8,22.6,18.8C1037.2,1949.8,1046.6,1933.5,1046.6,1917.1z"/>
<path class="st0" d="M1128.4,1874.8h-25.7v57c0,13,5.8,16.6,14.3,16.6c3.8-0.1,7.6-0.9,11-2.5l0.6,9.1c-4.6,1.7-9.4,2.5-14.3,2.5
	c-11,0-22-5.6-22-23.2v-59.5h-19v-8.9h18.8v-25.7h10.6v25.7h25.7L1128.4,1874.8L1128.4,1874.8z"/>
<path class="st0" d="M1155.4,1838c-4.4,0-7.9-3.5-7.9-7.9s3.5-7.9,7.9-7.9c4.4,0,7.9,3.5,7.9,7.9l0,0
	C1163.3,1834.5,1159.8,1838,1155.4,1838C1155.4,1838,1155.4,1838,1155.4,1838z M1160.8,1955.9h-10.6v-90.1h10.6V1955.9z"/>
<path class="st0" d="M1237.8,1958.4c-27.8,0-47.3-20.3-47.3-47.6c0-27.4,19.5-47.3,47.3-47.3c28,0,47.6,19.9,47.6,47.3
	C1285.3,1938.2,1265.8,1958.4,1237.8,1958.4z M1237.8,1872.6c-22.4,0-36.5,16.8-36.5,38.3s14.2,38.1,36.5,38.1
	c22.6,0,36.7-16.6,36.7-38.1S1260.4,1872.6,1237.8,1872.6L1237.8,1872.6L1237.8,1872.6z"/>
<path class="st0" d="M1324.2,1865.9c0.4,5,0.8,13.1,0.8,18h0.4c5.2-12.4,18.8-20.3,32.3-20.3c23.6,0,33.6,16.2,33.6,37.5v54.9h-10.4
	v-51c0-17.8-5.6-32.5-25.5-32.5c-15.7,0-29.8,12.6-29.8,37.7v45.8h-10.6v-69.4c0-5-0.2-14.7-0.8-20.7L1324.2,1865.9L1324.2,1865.9
	L1324.2,1865.9z"/>
<path class="st0" d="M1419.7,1931.6c0-25.9,27.8-30.2,54.7-30.2h9.1v-4.1c0-17-9.3-25.1-25.5-25.1c-10,0-19.6,3.8-26.9,10.6l-5.8-7
	c7.5-7.3,19.9-12.4,33.6-12.4c19.9,0,34.6,10.6,34.6,32.7v39.4c0,6.8,0.5,13.6,1.6,20.3h-9.5c-0.9-5.5-1.4-11.1-1.6-16.6h-0.4
	c-7.3,13.1-18.6,19.1-33,19.1C1436.7,1958.4,1419.7,1950.9,1419.7,1931.6z M1483.5,1917.1v-7.3h-6.8c-20.9,0-46.2,2.5-46.2,21.3
	c0,14.1,12,18.8,22.6,18.8C1474,1949.8,1483.4,1933.5,1483.5,1917.1L1483.5,1917.1L1483.5,1917.1z"/>
<path class="st0" d="M1539.1,1955.9h-10.4v-146.1h10.4V1955.9z"/>
<path class="st0" d="M1624.7,1819.1h39.6c20.9,0,43.7,7.3,43.7,34.2c0,15.8-11,26.9-25.3,30.2v0.4c16.6,1.7,31.9,13.3,31.9,34.6
	c0,24.7-21.1,37.5-48.9,37.5h-41L1624.7,1819.1L1624.7,1819.1L1624.7,1819.1z M1635.7,1879.8h29.4c14.9,0,31.7-6.6,31.7-25.7
	c0-18.8-16-25.5-34.6-25.5h-26.5V1879.8L1635.7,1879.8z M1635.7,1946.5h28.8c21.3,0,38.8-8.1,38.8-28.4c0-20.1-15.7-29-36.5-29
	h-31.1V1946.5L1635.7,1946.5L1635.7,1946.5z"/>
<path class="st0" d="M1811.4,1955.9c-0.4-4.8-0.8-13.1-0.8-17.8h-0.4c-5,12.2-18.6,20.3-32.1,20.3c-23.6,0-33.8-16.2-33.8-37.5
	v-55.1h10.6v51c0,17.8,5.4,32.7,25.5,32.7c15.5,0,29.8-12.8,29.8-37.9v-45.8h10.4v69.4c0,5,0.4,14.9,1,20.7L1811.4,1955.9
	L1811.4,1955.9L1811.4,1955.9z"/>
<path class="st0" d="M1904.2,1884.6c-4.4-7.5-12.6-12.4-22.6-12.4c-9.5,0-20.3,4.4-20.3,15.7c0,10.4,7.7,13.9,22.6,17.2
	c19.1,4.3,30.1,11.2,30.1,25.9c0,19.1-16.2,27.3-32.7,27.3c-13.5,0-26.5-5.4-34.2-16.8l8.3-6c5.7,8.7,15.5,13.9,25.9,13.9
	c11.2,0,22.2-5,22.2-17.6c0-24.6-52.4-9.7-52.4-43.1c0-17.4,15.1-25.1,30.7-25.1c13.1,0,24.6,5.4,30.3,15.3L1904.2,1884.6z"/>
<path class="st0" d="M1946.6,1838c-4.4,0-7.9-3.5-7.9-7.9c0-4.4,3.5-7.9,7.9-7.9c4.4,0,7.9,3.5,7.9,7.9l0,0l0,0
	C1954.5,1834.5,1950.9,1838,1946.6,1838z M1952,1955.9h-10.6v-90.1h10.7L1952,1955.9L1952,1955.9z"/>
<path class="st0" d="M1997.6,1865.9c0.4,5,0.8,13.1,0.8,18h0.4c5.2-12.4,18.8-20.3,32.3-20.3c23.6,0,33.6,16.2,33.6,37.5v54.9h-10.4
	v-51c0-17.8-5.6-32.5-25.5-32.5c-15.7,0-29.8,12.6-29.8,37.7v45.8h-10.6v-69.4c0-5-0.2-14.7-0.8-20.7L1997.6,1865.9L1997.6,1865.9z"
	/>
<path class="st0" d="M2093.1,1910.7c0-27.3,19.5-47.2,44.6-47.2c28.2,0,42.5,20.5,42.5,44.1v5.4h-76.3c0.4,19.1,13.9,36.3,35.2,36.3
	c13.5,0,22.6-5.4,30.9-15.3l7,5.6c-10,13-23.2,18.8-38.3,18.8C2112.4,1958.4,2093.1,1938.2,2093.1,1910.7z M2169.8,1904.7
	c-0.8-18.9-12.6-32.5-32.3-32.5c-20.3,0-32.7,17.6-33.4,32.5H2169.8z"/>
<path class="st0" d="M2256.6,1884.6c-4.4-7.5-12.6-12.4-22.6-12.4c-9.5,0-20.3,4.4-20.3,15.7c0,10.4,7.7,13.9,22.6,17.2
	c19.1,4.3,30.1,11.2,30.1,25.9c0,19.1-16.2,27.3-32.7,27.3c-13.5,0-26.5-5.4-34.2-16.8l8.3-6c5.7,8.7,15.5,13.9,25.9,13.9
	c11.2,0,22.2-5,22.2-17.6c0-24.6-52.4-9.7-52.4-43.1c0-17.4,15.1-25.1,30.7-25.1c13.1,0,24.6,5.4,30.3,15.3L2256.6,1884.6z"/>
<path class="st0" d="M2340.6,1884.6c-4.4-7.5-12.6-12.4-22.6-12.4c-9.5,0-20.3,4.4-20.3,15.7c0,10.4,7.7,13.9,22.6,17.2
	c19.1,4.3,30.1,11.2,30.1,25.9c0,19.1-16.2,27.3-32.7,27.3c-13.5,0-26.5-5.4-34.2-16.8l8.3-6c5.7,8.7,15.5,13.9,25.9,13.9
	c11.2,0,22.2-5,22.2-17.6c0-24.6-52.4-9.7-52.4-43.1c0-17.4,15.1-25.1,30.7-25.1c13.1,0,24.6,5.4,30.3,15.3L2340.6,1884.6z"/>
<path class="st0" d="M1866.4,1988.5h21.2c15.9,0,33.5,10.6,33.5,31.9s-17.6,31.9-33.5,31.9h-21.2V1988.5z M1872.9,2046.5h12.9
	c19.2,0,28.4-13,28.4-26.1s-9.3-26.1-28.4-26.1h-12.9V2046.5z"/>
<path class="st0" d="M1972.4,2032.8h-34.9c0,8.5,6.9,15.3,15.4,15.3c5.4,0,10.5-2.7,13.5-7.3l4.6,3.6c-4.2,5.7-11,9-18.1,8.9
	c-12.5,0-21.8-9.4-21.8-22.1s9.3-22.1,21.2-22.1c13.2,0,20.2,9.4,20.2,20.9C1972.5,2030.8,1972.5,2031.7,1972.4,2032.8z
	 M1966.3,2028c-0.4-7.9-5.2-13.8-13.9-13.8c-7.8,0.1-14.2,6-14.8,13.8H1966.3z"/>
<path class="st0" d="M2008.1,2020.1c-2.1-3.8-6.1-6.1-10.3-5.9c-4.4,0-8.9,1.9-8.9,6.6c0,4,3.2,5.8,10.1,7.2
	c9.9,2.1,14.6,5.8,14.6,12.3c0,9.6-8.1,13-15.8,13c-6.4,0-12.8-2.5-16.7-8.2l4.9-3.6c2.5,4,6.9,6.5,11.7,6.6c5.2,0,9.9-1.9,9.9-7.4
	c0-4.4-4.4-6.2-12.4-8.1c-4.9-1.2-12.1-3.3-12.1-11.3c0-8.6,7.4-12.2,15-12.2c5.8,0,12.1,2.8,14.8,7.6L2008.1,2020.1z"/>
<path class="st0" d="M2044.3,2053.3c-13.1,0-21.8-9.7-21.8-22.1s8.6-22.1,21.8-22.1c6.4,0,12.3,3.1,15.9,8.4h0.2v-33.2h6.1v68h-6.1
	v-7.1h-0.2C2056.6,2050.3,2050.6,2053.4,2044.3,2053.3z M2044.9,2048.1c9.5,0,16.2-7.3,16.2-16.9s-6.8-17-16.2-17
	c-10.2,0-15.9,7.7-15.9,17S2034.8,2048.1,2044.9,2048.1z"/>
<path class="st0" d="M2121.2,2032.8h-34.9c0,8.5,6.9,15.3,15.4,15.3c5.4,0,10.5-2.7,13.5-7.3l4.6,3.6c-4.2,5.7-11,9-18.1,8.9
	c-12.5,0-21.8-9.4-21.8-22.1s9.3-22.1,21.2-22.1c13.2,0,20.2,9.4,20.2,20.9C2121.3,2030.8,2121.3,2031.7,2121.2,2032.8z
	 M2115.1,2028c-0.4-7.9-5.2-13.8-13.9-13.8c-7.8,0.1-14.2,6-14.8,13.8H2115.1z"/>
<path class="st0" d="M2181.1,2052.3h-6.5v-55.7l-11.5,9.8l-4-4.5l16.2-13.3h5.8V2052.3L2181.1,2052.3z"/>
<path class="st0" d="M2235.3,2024.4l-0.2-0.2c-1.9,1.4-5.9,2.3-9.1,2.3c-11.1,0-19.4-8-19.4-19.6c0-11.9,8.7-20.1,20.7-20.1
	s20.7,8.2,20.7,20.1c0,6.6-2.6,12.2-5.8,17.3l-17.4,28h-7.5L2235.3,2024.4z M2227.3,1992.4c-8.4,0-14.2,6.3-14.2,14.6
	s5.5,14.4,14.2,14.4s14.2-6.2,14.2-14.4S2235.7,1992.4,2227.3,1992.4L2227.3,1992.4z"/>
<path class="st0" d="M2287.5,2024.4l-0.2-0.2c-1.9,1.4-5.8,2.3-9.1,2.3c-11.1,0-19.4-8-19.4-19.6c0-11.9,8.7-20.1,20.7-20.1
	s20.7,8.2,20.7,20.1c0,6.6-2.6,12.2-5.8,17.3l-17.4,28h-7.5L2287.5,2024.4z M2279.5,1992.4c-8.4,0-14.2,6.3-14.2,14.6
	s5.5,14.4,14.2,14.4s14.2-6.2,14.2-14.4S2287.9,1992.4,2279.5,1992.4L2279.5,1992.4z"/>
<path class="st0" d="M2324.7,2016.1h2.8c8.2,0,14.8-3.2,14.8-11.7c0-7.1-5.8-12-12.6-12c-5.2-0.1-9.9,2.8-12.2,7.5l-5.5-2.8
	c4-6.8,10.3-10.1,18-10.1c10,0,18.6,6,18.6,17.1c0.1,6.8-4.4,12.9-11.1,14.6v0.2c7.6,1.4,13.1,8.1,12.9,15.8
	c0,12.2-9.4,19.3-20.5,19.3c-9.3,0-16.6-4.7-20.2-13l6.1-2.3c2.1,5.9,7.7,9.9,14,9.7c7.3,0,14-5.1,14-13.7c0-9.6-8.2-13-16.6-13
	h-2.8L2324.7,2016.1L2324.7,2016.1z"/>
<path class="st1" d="M826.1,1259.3c-62.5,582.6,847.2,403.2,967.6-143.1C1612,1586.3,854.5,1759,826.1,1259.3z"/>
<path class="st2" d="M570.6,405.3c425.3-584.3,1219.1-180.6,796.1,293C1649.5,266.7,1045.3-60.4,570.6,405.3z"/>
<path class="st2" d="M806.8,362.7C1487.2-8.7,2205.4,671,1498.4,1020.2C2055.3,605.8,1404.8,131.1,806.8,362.7z"/>
<path class="st2" d="M806.8,313.3c-632,337.3,25.8,1001,698.4,664.4C960.1,1202.5,287.3,727.2,806.8,313.3z"/>
<path class="st3" d="M1340,819.2c-405.4,297.3,21.3,802.4,356,569C1302.6,1540.6,1062.3,1069.6,1340,819.2z"/>
<path class="st3" d="M968.7,853.3c438.9,291.3,50.5,791-291.3,582.6C1070.3,1567,1270.2,1092.3,968.7,853.3z"/>
<path class="st4" d="M1587,122.5C510.4-426-355,1011.7,803.4,1597.7C-266.8,940,668-293.8,1587,122.5z"/>
<path class="st4" d="M834.8,1612.7c1072.1,442.8,1784.6-951.9,783.5-1481.6C2479.7,739.1,1832.3,1928.2,834.8,1612.7z"/>
</svg>
